<svg id="Layer_1" data-name="Layer 1" xmlns="http://www.w3.org/2000/svg" viewBox="0 0 493.98 493.98">
  <defs>
    <style>
      .cls-1, .cls-4 {
        fill: none;
      }

      .cls-2 {
        fill: #d0d4fc;
      }

      .cls-2, .cls-3, .cls-4, .cls-6, .cls-7, .cls-8, .cls-9 {
        stroke: #434669;
        stroke-miterlimit: 10;
        stroke-width: 3px;
      }

      .cls-3 {
        fill: #fff;
      }

      .cls-5 {
        fill: #434669;
      }

      .cls-6 {
        fill: #a4aeb2;
      }

      .cls-7 {
        fill: #fe5865;
      }

      .cls-8 {
        fill: #63ccc5;
      }

      .cls-9 {
        fill: #ffce6f;
      }
    </style>
  </defs>
  <title>landing-icons</title>
  <rect class="cls-1" width="493.98" height="493.98"/>
  <g>
    <path class="cls-2" d="M172.35,97.56h166a4,4,0,0,1,4,4v9.5a0,0,0,0,1,0,0h-174a0,0,0,0,1,0,0v-9.5A4,4,0,0,1,172.35,97.56Z"/>
    <rect class="cls-3" x="168.35" y="111.06" width="173.97" height="231.59"/>
    <line class="cls-4" x1="183.51" y1="132.36" x2="214.1" y2="132.36"/>
    <line class="cls-4" x1="200.34" y1="138.97" x2="240.69" y2="138.97"/>
    <line class="cls-4" x1="200.34" y1="145.58" x2="235.25" y2="145.58"/>
    <line class="cls-4" x1="200.34" y1="152.18" x2="230.93" y2="152.18"/>
    <line class="cls-4" x1="183.51" y1="169" x2="214.1" y2="169"/>
    <line class="cls-4" x1="200.34" y1="175.61" x2="323.32" y2="175.61"/>
    <line class="cls-4" x1="200.34" y1="182.22" x2="317.08" y2="182.22"/>
    <line class="cls-4" x1="200.34" y1="188.83" x2="230.93" y2="188.83"/>
    <line class="cls-4" x1="183.51" y1="205.65" x2="214.1" y2="205.65"/>
    <line class="cls-4" x1="200.34" y1="212.25" x2="281.04" y2="212.25"/>
    <line class="cls-4" x1="200.34" y1="218.86" x2="267.5" y2="218.86"/>
    <line class="cls-4" x1="200.34" y1="225.47" x2="230.93" y2="225.47"/>
    <g>
      <polyline class="cls-4" points="139.88 363.59 130.38 335.74 120.89 363.59"/>
      <line class="cls-4" x1="124.13" y1="354.08" x2="136.64" y2="354.08"/>
      <polyline class="cls-4" points="148.74 360.68 142.5 342.39 140.02 349.67"/>
      <line class="cls-4" x1="141.16" y1="353.89" x2="146.28" y2="353.89"/>
    </g>
    <circle class="cls-5" cx="175.72" cy="104.31" r="2.25"/>
    <circle class="cls-5" cx="182.75" cy="104.31" r="2.25"/>
    <circle class="cls-5" cx="189.78" cy="104.31" r="2.25"/>
    <g>
      <rect class="cls-6" x="46.65" y="244.9" width="196.27" height="70.21"/>
      <rect class="cls-6" x="46.65" y="244.9" width="23.4" height="23.4"/>
      <rect class="cls-6" x="70.05" y="244.9" width="23.4" height="23.4"/>
      <rect class="cls-6" x="93.46" y="244.9" width="23.4" height="23.4"/>
      <rect class="cls-6" x="116.86" y="244.9" width="23.4" height="23.4"/>
      <rect class="cls-6" x="140.27" y="244.9" width="23.4" height="23.4"/>
      <rect class="cls-6" x="163.67" y="244.9" width="23.4" height="23.4"/>
      <rect class="cls-6" x="187.08" y="244.9" width="23.4" height="23.4"/>
      <rect class="cls-6" x="46.65" y="268.31" width="32.44" height="23.4"/>
      <rect class="cls-6" x="46.65" y="291.71" width="42.42" height="23.4"/>
      <rect class="cls-6" x="200.5" y="291.71" width="42.42" height="23.4"/>
      <rect class="cls-6" x="79.09" y="268.31" width="23.4" height="23.4"/>
      <rect class="cls-6" x="102.49" y="268.31" width="23.4" height="23.4"/>
      <rect class="cls-6" x="125.89" y="268.31" width="23.4" height="23.4"/>
      <rect class="cls-6" x="149.3" y="268.31" width="23.4" height="23.4"/>
      <rect class="cls-6" x="172.7" y="268.31" width="23.4" height="23.4"/>
      <rect class="cls-6" x="196.11" y="268.31" width="23.4" height="23.4"/>
    </g>
    <polyline class="cls-4" points="103.86 144.66 92.57 133.37 103.86 122.08"/>
    <polyline class="cls-4" points="128.65 144.66 139.95 133.37 128.65 122.08"/>
    <line class="cls-4" x1="110.65" y1="144.66" x2="121" y2="122.08"/>
    <polygon class="cls-7" points="415.01 284.5 382.68 245.4 396.74 228.29 433.28 228.29 447.33 245.4 415.01 284.5"/>
    <polygon class="cls-7" points="402.36 246.23 415.01 230.54 427.66 246.23 415.01 282.1 402.36 246.23"/>
    <line class="cls-7" x1="396.74" y1="228.29" x2="402.36" y2="245.39"/>
    <line class="cls-7" x1="433.28" y1="228.29" x2="427.66" y2="245.39"/>
    <line class="cls-7" x1="447.33" y1="245.39" x2="382.68" y2="245.39"/>
    <g>
      <rect class="cls-8" x="976.66" y="362" width="16.6" height="11.07" transform="translate(-646.52 781.97) rotate(-45.01)"/>
      <rect class="cls-8" x="939.48" y="399.17" width="16.6" height="11.07" transform="translate(-683.74 766.45) rotate(-45)"/>
      <path class="cls-3" d="M972.28,384.12a5.8,5.8,0,0,1,.13,8,5.72,5.72,0,0,1-8-.2" transform="translate(-675.17 -22.26)"/>
      <path class="cls-4" d="M982.18,386.21a13.84,13.84,0,0,1-15.65,15.73" transform="translate(-675.17 -22.26)"/>
      <path class="cls-4" d="M990.5,385.79A22.14,22.14,0,0,1,966,410.25" transform="translate(-675.17 -22.26)"/>
      <path class="cls-4" d="M998.47,382.94a30.45,30.45,0,0,1-35,35.33" transform="translate(-675.17 -22.26)"/>
      <path class="cls-9" d="M959.52,379.27a12.45,12.45,0,0,0,0,17.61l17.61-17.61A12.45,12.45,0,0,0,959.52,379.27Z" transform="translate(-675.17 -22.26)"/>
    </g>
  </g>
</svg>
