<svg id="Layer_1" data-name="Layer 1" xmlns="http://www.w3.org/2000/svg" viewBox="0 0 493.98 493.98">
  <defs>
    <style>
      .cls-1, .cls-7 {
        fill: none;
      }

      .cls-2 {
        fill: #cad5d8;
      }

      .cls-10, .cls-11, .cls-12, .cls-2, .cls-3, .cls-4, .cls-5, .cls-6, .cls-7, .cls-8, .cls-9 {
        stroke: #434669;
        stroke-miterlimit: 10;
        stroke-width: 3px;
      }

      .cls-3 {
        fill: #a4aeb2;
      }

      .cls-4 {
        fill: #f4efea;
      }

      .cls-5 {
        fill: #fff;
      }

      .cls-6 {
        fill: #d0d4fc;
      }

      .cls-8 {
        fill: #63ccc5;
      }

      .cls-9 {
        fill: #eff3f4;
      }

      .cls-10 {
        fill: #fe5865;
      }

      .cls-11 {
        fill: #ffce6f;
      }

      .cls-12 {
        fill: #b2e6f7;
      }
    </style>
  </defs>
  <title>landing-icons</title>
  <rect class="cls-1" width="493.98" height="493.98"/>
  <g>
    <path class="cls-2" d="M1785.66,308.4v31c0,4.28-9.83,7.75-22,7.75s-22-3.47-22-7.75v-31" transform="translate(-1373.32 -2.65)"/>
    <g>
      <path class="cls-3" d="M1436.48,158.67V125.43a8.51,8.51,0,0,0-17,0v33.25h17Z" transform="translate(-1373.32 -2.65)"/>
      <path class="cls-4" d="M1554.26,116.92H1428a8.51,8.51,0,0,1,8.51,8.51V317.74H1562.7V125.36A8.44,8.44,0,0,0,1554.26,116.92Z" transform="translate(-1373.32 -2.65)"/>
      <g>
        <line class="cls-5" x1="80.44" y1="244.78" x2="171.3" y2="244.78"/>
        <rect class="cls-6" x="84.39" y="225.03" width="11.85" height="19.75"/>
        <rect class="cls-6" x="108.09" y="205.28" width="11.85" height="39.51"/>
        <rect class="cls-6" x="131.79" y="213.18" width="11.85" height="31.61"/>
        <rect class="cls-6" x="155.5" y="185.52" width="11.85" height="59.26"/>
        <circle class="cls-5" cx="90.31" cy="197.38" r="3.95"/>
        <circle class="cls-5" cx="114.02" cy="177.62" r="3.95"/>
        <circle class="cls-5" cx="137.72" cy="185.52" r="3.95"/>
        <circle class="cls-5" cx="161.42" cy="157.87" r="3.95"/>
        <line class="cls-5" x1="93.35" y1="194.85" x2="110.98" y2="180.15"/>
        <line class="cls-5" x1="117.75" y1="178.87" x2="134.09" y2="184.31"/>
        <line class="cls-5" x1="158.85" y1="160.87" x2="140.29" y2="182.52"/>
      </g>
      <line class="cls-5" x1="80.44" y1="263.97" x2="161.42" y2="263.97"/>
      <line class="cls-5" x1="80.44" y1="273.39" x2="134.09" y2="273.39"/>
      <line class="cls-5" x1="80.44" y1="282.8" x2="141.67" y2="282.8"/>
      <line class="cls-5" x1="80.44" y1="292.21" x2="90.31" y2="292.21"/>
    </g>
    <g>
      <polyline class="cls-7" points="158.54 364.82 108.76 364.82 108.76 327.69"/>
      <path class="cls-7" d="M1508.85,353.45l0.4,2.2a6.49,6.49,0,0,0,6.38,5.32" transform="translate(-1373.32 -2.65)"/>
      <path class="cls-7" d="M1487.49,361a6.48,6.48,0,0,0,6.38-5.32l2.59-14.22a5.18,5.18,0,0,1,8.22-3.22" transform="translate(-1373.32 -2.65)"/>
      <path class="cls-7" d="M1498.31,361a6.48,6.48,0,0,0,6.38-5.32l2.59-14.22a5.18,5.18,0,0,1,10.2,0l2.59,14.22a6.48,6.48,0,0,0,6.38,5.32" transform="translate(-1373.32 -2.65)"/>
    </g>
    <rect class="cls-8" x="165.26" y="195.11" width="206.03" height="9.16" rx="1" ry="1"/>
    <path class="cls-9" d="M237,184.76h62.62a1,1,0,0,1,1,1v9.33a0,0,0,0,1,0,0H236a0,0,0,0,1,0,0v-9.33A1,1,0,0,1,237,184.76Z"/>
    <path class="cls-5" d="M177.81,204.26H358.74a0,0,0,0,1,0,0V332.69a1,1,0,0,1-1,1H178.81a1,1,0,0,1-1-1V204.26A0,0,0,0,1,177.81,204.26Z"/>
    <line class="cls-5" x1="312.7" y1="351.87" x2="223.85" y2="351.87"/>
    <path class="cls-7" d="M1600.46,336.33L1592.62,395c-0.76,5.71-4.89,9.52-9.21,8.51" transform="translate(-1373.32 -2.65)"/>
    <path class="cls-7" d="M1682.74,336.33l7.84,58.67c0.76,5.71,4.89,9.52,9.21,8.51" transform="translate(-1373.32 -2.65)"/>
    <line class="cls-5" x1="189.9" y1="215.81" x2="230.33" y2="215.81"/>
    <line class="cls-5" x1="331.06" y1="215.81" x2="346.69" y2="215.81"/>
    <line class="cls-5" x1="315.91" y1="215.81" x2="323.72" y2="215.81"/>
    <line class="cls-5" x1="189.9" y1="225.23" x2="206.87" y2="225.23"/>
    <rect class="cls-10" x="337.91" y="311.5" width="7.81" height="7.81"/>
    <rect class="cls-11" x="321.61" y="311.5" width="7.81" height="7.81"/>
    <rect class="cls-8" x="305.3" y="311.5" width="7.81" height="7.81"/>
    <path class="cls-11" d="M1625,264.45H1652A26.94,26.94,0,0,0,1625,237.51v26.94Z" transform="translate(-1373.32 -2.65)"/>
    <path class="cls-8" d="M1646.29,292.19a26.85,26.85,0,0,0,7.89-19h-26.94Z" transform="translate(-1373.32 -2.65)"/>
    <path class="cls-10" d="M1617,248.89a26.94,26.94,0,1,0,19,46l-19-19V248.89Z" transform="translate(-1373.32 -2.65)"/>
    <line class="cls-5" x1="80.44" y1="128.72" x2="103.54" y2="128.72"/>
    <line class="cls-5" x1="80.44" y1="138.13" x2="94.26" y2="138.13"/>
    <g>
      <circle class="cls-12" cx="396.87" cy="119.81" r="26.87"/>
      <circle class="cls-9" cx="396.87" cy="119.81" r="20.48"/>
      <path class="cls-7" d="M1788,142.94l7.8,7.8a4.28,4.28,0,0,1,0,6.05" transform="translate(-1373.32 -2.65)"/>
      <path class="cls-7" d="M1790.67,140.25l7.8,7.8a4.28,4.28,0,0,0,6.05,0" transform="translate(-1373.32 -2.65)"/>
      <path class="cls-5" d="M1756.81,122.46a13.39,13.39,0,0,0,13.39,13.39" transform="translate(-1373.32 -2.65)"/>
      <path class="cls-11" d="M1819.35,162.86l-15-15-8.74,8.74,15,15A6.18,6.18,0,1,0,1819.35,162.86Z" transform="translate(-1373.32 -2.65)"/>
    </g>
    <ellipse class="cls-12" cx="390.37" cy="305.75" rx="21.96" ry="7.75"/>
    <path class="cls-7" d="M1785.66,318.73c0,4.28-9.83,7.75-22,7.75s-22-3.47-22-7.75" transform="translate(-1373.32 -2.65)"/>
    <path class="cls-7" d="M1785.66,329.07c0,4.28-9.83,7.75-22,7.75s-22-3.47-22-7.75" transform="translate(-1373.32 -2.65)"/>
    <line class="cls-7" x1="373.58" y1="357.43" x2="407.17" y2="357.43"/>
    <line class="cls-7" x1="390.37" y1="344.51" x2="390.37" y2="357.43"/>
  </g>
</svg>
