<?xml version="1.0" encoding="UTF-8" standalone="no"?>
<svg  width="80px" height="80px" viewBox="0 0 183 141" version="1.1" xmlns="http://www.w3.org/2000/svg" xmlns:xlink="http://www.w3.org/1999/xlink">
    <!-- Generator: Sketch 3.6.1 (26313) - http://www.bohemiancoding.com/sketch -->
    <title>Shape</title>
    <desc>Created with Sketch.</desc>
    <defs></defs>
    <g id="Page-1" stroke="none" stroke-width="1" fill="none" fill-rule="evenodd">
        <path d="M113.7,0.066 C113.264691,0.0491864625 112.828839,0.0793608722 112.4,0.156 C105.4,0.126 98.6,2.24 91,5.54 C83.8,8.65 80.15,12.81 76.29,17.73 C76.2562788,17.7629432 76.2229432,17.7962788 76.19,17.83 C75.39,17.99 74.59,18.14 73.67,18.47 C71.38,19.27 69.26,20.8 67.25,22.76 C65.26,24.69 63.57,26.68 61.78,28.66 C60.957378,28.4288964 60.0951822,28.3743702 59.25,28.5 C46.92,30.37 37.69,33.85 28.85,41.61 C26.22,43.91 24.07,46.49 22.14,49.19 C22.04,48.79 22.14,48.53 21.9,48.08 C21.58,47.26 20.97,46.38 20.24,45.57 C19.7597345,43.7196983 18.4345737,42.2044808 16.6647518,41.481984 C14.8949299,40.7594872 12.8879596,40.9144242 11.25,41.9 C8.69,43.44 5.67,45.76 3.3,49.37 C2.11,51.17 1.04,53.39 0.92,56.18 C0.82,58.23 1.64,60.38 2.82,62.3 C3.26,63.91 3.69,65.52 4.54,67.31 C6.14,70.65 10.03,72.5 12.87,72.7 C12.63,75.85 12.69,79.29 13.1,83.27 C13.27,84.87 13.7,86.46 14.02,88.05 C13.4420625,88.6359314 12.9895303,89.3334435 12.69,90.1 C12.44,90.74 12.21,91.34 11.97,91.96 C10.54,93.4 9.1,94.9 7.65,96.4 C7.13,96.9 6.25,97.3 5.23,99.4 C4.2,101.5 4.45,103.5 4.62,104.7 C5.22,109 7.45,112.7 10.42,115.7 C12.05,117.4 14.47,119.4 17.8,121.1 C19.13,121.7 20.69,122.2 22.49,122.5 C21.57,124.9 21.76,128.2 23.06,130.4 C24.36,132.6 26.08,133.7 27.54,134.5 C30.46,136 33.22,136.5 34.4,136.8 C34.4333328,136.800275 34.4666672,136.800275 34.5,136.8 C35.81,137.2 39.06,138.1 42.58,138.5 C44.34,138.7 46.15,138.8 48.33,138.4 C50.51,137.9 54.01,136.1 55.01,132.5 C55.58,130.5 55.68,128.7 55.67,126.9 C56.58,125.2 57.13,124.4 58.21,122.6 C59.39,120.7 59.93,118.5 60.23,116.3 C61.08,116.4 61.94,116.4 62.79,116.5 C62.51,117.2 62.1,117.9 62.04,118.5 C61.81,120.8 62.29,122.4 62.79,123.9 C63.79,126.8 65.25,129 65.92,130.1 C67.34,132.4 69,135.3 72.02,137.8 C75.03,140.4 80.87,141.8 85.42,139.4 C89.5,137.3 90.5,134.6 91.1,133.6 C91.5,133.3 92,133 92.5,132.6 C93.6,131.7 94.8,130.7 96,129.8 C96.6,129.3 97,128.9 97.6,128.5 C99.4,129.3 100.9,129.5 102.7,129.6 C102.766662,129.6011 102.833338,129.6011 102.9,129.6 C105.1,129.8 110.2,129.9 112,129.9 C113.8,129.9 116.1,130.3 119,128.3 C121.9,126.3 122.6,123 122.8,120.6 C123,119 122.6,117.1 122,115.4 L121.8,107.7 C121.7,104.9 121,102.6 120.2,100.4 C122.4,101.9 125.1,103.3 128.6,103.4 C135.9,103.5 142.1,99.4 144.3,92.3 C144.5,91.55 144.7,91 144.9,90.34 C151.6,91.25 158.8,90.9 165.6,87.08 C165.633333,87.080275 165.666667,87.080275 165.7,87.08 C175.9,81.33 180.7,69.88 181.7,59.54 C182.8,50.19 181.3,37.82 177.5,28.56 C177.467591,28.5027946 177.434253,28.4461204 177.4,28.39 C176.4,25.95 175,24.43 172.7,23 C171.5,22.28 170,21.6 168,21.51 C166,21.41 163.6,22.29 162,23.83 C159.1,26.65 157.7,29 157.1,29.51 C157.066667,29.509725 157.033333,29.509725 157,29.51 C157.1,29.51 156.4,29.77 156.3,29.78 C155.3,27.77 154.2,25.78 152.8,23.87 C150.8,20.96 148.2,19.32 146,18.03 C145.966667,18.029725 145.933333,18.029725 145.9,18.03 C145.5,17.79 145,17.5 144.5,17.2 C144.337456,17.1056263 144.170609,17.0188659 144,16.94 C143.782241,16.722515 143.548231,16.5219347 143.3,16.34 C140.6,14.4 138,11.96 134.6,9.2 C127.9,3.53 120.9,0.392 113.7,0.066 L113.7,0.066 Z M113.4,6.12 C119.2,6.38 124.7,8.74 130.7,13.82 C133.9,16.45 136.6,19.01 139.8,21.28 C138.6,21.38 137.6,21.58 136.3,22.1 C137.9,21.79 139.8,22.1 141.4,22.4 C141.9,22.7 142.4,23 142.9,23.29 C145.1,24.61 146.4,25.34 147.9,27.45 C149.5,29.68 150.8,31.91 152,34.37 C151.2,34.1 150.6,33.86 150,33.69 C149.6,33.5 149.1,33.32 148.6,33.32 C147.7,33.22 146.7,33.47 146,33.94 L145.9,34.04 C144.6,34.64 142.7,35.33 141.4,35.54 C142.1,35.72 143.5,35.81 144.2,35.54 C144.3,35.54 144.4,35.44 144.5,35.44 C144.2,35.97 144,36.56 143.9,37.21 C143.8,38.06 144,38.88 144.4,39.59 C144.4,39.69 144.5,39.69 144.5,39.78 C144.3,39.42 144.2,39 144.2,38.63 C144.3,37.66 145.1,36.94 146.1,37.04 C147.1,37.14 147.8,38 147.7,38.97 C147.7,39.18 147.6,39.37 147.5,39.55 C146.6,39.7 145.8,39.96 144.8,40.3 C144.3,40.51 143.7,40.76 143,41.03 C145.9,40.59 148.5,40.52 151.3,40.89 C151.5,41.77 151.7,42.7 151.8,43.66 C151.5,43.66 151.1,43.76 150.8,43.76 L150.7,43.76 C149.4,42.7 147.9,42.88 145.9,43.34 C139.8,44.74 141.2,48.18 138.4,53.36 C141.3,49.78 141.1,46.04 145.9,44.91 C147,44.65 147.7,44.32 148.5,44.43 C147.1,45.11 146,46.24 145.5,47.55 C144.2,51.25 145,54.37 143.6,57.82 C145.3,54.73 145.5,51.72 147,48.47 C147.6,47.3 149.7,45.41 151,45.41 L152.1,45.41 C152.4,47.47 152.6,49.51 152.5,51.2 C152.3,54.29 151.5,58.88 151,60.63 C152.6,58.56 153.3,54.16 154.1,51.07 C154.8,47.84 154.6,43.98 154,40.52 C153.1,35.77 158,36.54 160.8,34.3 C162.9,32.66 164.3,30.03 166.2,28.17 C168.1,26.33 171.1,29.04 171.9,30.84 C175.1,38.67 176.6,50.99 175.7,58.89 C174.8,67.75 170.5,77.42 162.7,81.78 C152.7,87.34 141,83.94 131.1,80.61 C129,79.9 127.5,78.86 125.6,77.69 C126.2,79.97 126.4,82.38 125.7,84.65 C124.6,88.26 122.9,94.2 127.8,95.2 C129.7,95.7 130.5,95.6 133.2,94.2 C131,94.7 129.9,94.6 128.5,94.3 C127.2,94.1 126.5,93.2 126.1,92.3 C126.5,92.6 127.3,92.8 128.6,93.1 C132.2,94 135.7,92.2 136.4,89.69 C136.8,88.22 136.7,87.45 137.5,85.45 C138.3,85.68 139.1,85.89 139.9,86.08 C139.4,87.55 139,89.01 138.5,90.48 C137.3,94.3 132.8,97.4 128.8,97.3 C125.1,97.2 122.7,94.9 120.2,92.6 C118.4,91.04 116.7,89.54 115,88.05 C110.4,86.6 106.7,84.9 102.4,81.72 C105.4,85.31 107.5,87.29 111.8,89.07 C111.2,95.4 109,100 107.1,106 C106.2,108.8 99.6,119.7 97.7,120.8 C96.4,121.5 88.1,128.5 86.55,129.4 C85.39,130.9 84.37,133.1 82.63,134 C77.32,136.8 73.91,131.4 71.06,126.9 C69.76,124.8 66.15,118.9 69.29,117.2 C72.27,115.6 73.94,114.5 76.97,112.5 C77.42,113.3 78.18,114.1 78.68,114.9 L78.35,112.2 C78.11,110.6 78.12,109.3 78.25,107.7 C78.37,106.1 78.49,104.6 78.62,103 C78.16,104.6 77.25,106.2 76.79,107.8 C76.61,108.4 76.47,108.9 76.37,109.4 C69.56,110.8 62.79,110.9 55.98,109.7 C55.54,107.2 55.01,104.5 54.57,102.6 C54.37,104.8 54.47,110.6 54.47,113.9 C54.47,116.4 54.35,117.3 53.05,119.4 C51.83,121.4 51.31,121.9 49.6,125.3 C49.74,127.4 49.74,128.9 49.17,130.9 C48.22,134.3 38.64,131.7 36.11,131 C33,130.1 26.57,128.9 28.18,124.7 C29.61,121.1 30.51,117.2 31.21,112.1 C25.5,103.9 20.2,92.6 19.18,82.65 C18.39,74.9 18.87,70.13 20.54,65.4 C23.2,57.89 26.91,51.39 32.88,46.16 C40.92,39.1 48.43,36.27 60.2,34.48 C57.37,37.65 54.57,41 51.52,44.59 C48.43,48.23 46.59,51.9 44.63,55.88 C41.92,61.37 41.98,63.46 45.57,68.29 C48.67,72.44 50.34,74.31 51.69,78.38 C50.58,80.68 50.17,82.63 49.79,85.77 C53.59,89.91 56.4,92.8 60.08,93.6 C63.69,94.5 66.71,94.3 69.94,92.7 C77.11,89 83.75,84.26 91.8,84.07 C95.6,74.86 95.2,67.17 93.4,58.27 C92.2,52.19 91.7,46.43 91.3,40.23 C89.8,46.61 89.5,52.23 90.6,58.59 C92,66.26 93,74.72 89.3,81.46 C81.95,82.02 75.68,86.47 69.09,89.89 C66.44,91.26 63.67,91.39 60.74,90.59 C58.02,89.84 56.18,88.04 53.24,84.65 C53.24,81.26 53.97,79.69 55.53,76.61 C58.03,71.67 60.8,67.07 63.84,62.21 C60.12,66.7 56.6,70.45 53.67,74.96 C52.55,71.77 50.95,70.15 48.3,66.56 C45.71,63.06 45.44,61.52 47.38,57.47 C49.32,53.39 50.97,49.81 54.29,46.23 C60.01,40.06 65.25,33.18 71.51,27.09 C74.9,23.79 76.28,23.9 80.79,23.22 C84.86,22.6 88.8,21.82 93,20.86 C89,21.23 85.09,21.37 81.18,21.47 L81.06,21.47 C84.91,16.56 87.1,13.82 93.4,11.1 C101.1,7.76 107.4,5.91 113.3,6.16 L113.4,6.16 L113.4,6.12 Z M116.4,27.37 C108,29.46 106.4,32.98 107.5,38.38 C108.4,34.32 110.1,30.4 116.4,27.37 L116.4,27.37 Z M91.6,27.83 C88.2,28.21 84.81,28.56 81.42,28.88 C78.57,29.15 78.11,29.11 76.09,31.1 C73.02,34.14 70.04,44.55 69.09,48.71 C70.59,45.25 74.35,35.57 77.23,33.11 C78.02,32.43 78.58,32.01 79.18,31.71 C77.11,35.17 77.26,36.03 77.99,40.66 C78.6,35.95 80.23,34.13 82.9,30.62 C85.83,29.88 88.6,29 91.6,27.83 L91.6,27.83 Z M169.3,28.22 C167.4,32.15 164.4,35.44 160.3,37.45 C158.1,38.53 156.7,38.16 154.3,37.93 C156.8,38.67 158.3,39.53 160.8,38.67 C165.7,36.9 168.1,32.91 169.3,28.22 L169.3,28.22 Z M152,34.53 C152.2,34.89 152.3,35.26 152.5,35.63 C152.4,35.73 152.2,35.83 152.1,35.94 C151.9,35.42 151.6,34.95 151.2,34.56 L152,34.56 L152,34.53 Z M127.2,37.61 C124.5,38.87 121.3,38.56 118.9,40.14 C116.9,41.54 114,45.95 111.9,47.82 C113.5,47.23 114.9,46.21 116.3,45.14 C116.3,45.94 116.4,46.75 116.8,47.51 C117.2,48.29 117.7,48.94 118.4,49.45 C118.2,49.27 118,49.06 117.9,48.82 C117.3,47.65 117.8,46.24 119,45.69 C120.2,45.13 121.6,45.59 122.2,46.8 C122.2,46.91 122.3,47.02 122.3,47.14 C121.2,47.97 120.1,48.94 119.3,50.08 C118.5,51.07 117.9,52.19 117.5,53.42 C121.4,48.69 127.2,45.12 132.7,43.59 C131.2,43.59 129.4,43.85 127.5,44.46 C127.5,43.84 127.3,43.23 127,42.65 C126.3,41.27 125.2,40.27 123.9,39.78 C125.1,39.13 126.3,38.45 127.2,37.61 L127.2,37.61 Z M14.42,47.08 C13.89,48.22 13.51,49.09 13.25,49.98 C12.14,53.84 13.76,57.29 10.25,60.09 C11.9,63.41 11.83,64.74 15.66,63.2 C17.14,62.61 18.36,61.78 19.44,60.79 C18.92,62.14 18.44,63.52 17.99,64.95 C17.89,65.18 17.87,65.42 17.77,65.66 C15.03,66.82 11.43,67.56 10.05,64.68 C9.38,63.28 9,61.91 8.51,60.14 C4,55.47 10.75,49.29 14.42,47.08 L14.42,47.08 Z M15.36,49.17 C16.29,49.71 16.54,50.7 16.64,52.03 C16.08,51.47 15.64,51.08 14.92,51.18 C15.02,50.71 15.06,50.25 15.17,49.82 C15.27,49.6 15.27,49.38 15.36,49.17 L15.36,49.17 Z M128.4,74.01 C127.4,74.18 125.6,74.54 124.6,74.71 C122,75.16 121.7,75.79 121.3,78.39 C121.1,79.62 120.8,81.14 120.6,82.37 C121.1,80.98 121.8,79.37 122.4,78.05 C123,76.65 123.4,76.52 124.7,75.78 C125.7,75.26 127.4,74.54 128.4,74.01 L128.4,74.01 Z M18.39,92.3 C20.47,99.4 24,106.5 27.93,112.4 L27.93,112.6 C27.68,113.6 27.39,114.6 26.8,115.4 C24,119.1 16.86,113.6 14.8,111.5 C12.54,109.2 11.03,106.5 10.67,103.9 C10.41,102 10.67,102 11.97,100.7 C13.72,98.9 15.48,97.1 17.23,95.3 C17.62,94.3 18,93.3 18.39,92.3 L18.39,92.3 Z M112.7,97 C113.1,98.4 113.5,99.7 114.1,101.2 C115.1,103.7 115.6,105.2 115.7,107.9 L116,116.3 C116.8,117.8 117,118.2 116.8,120 C116.5,123.6 115.3,123.9 112.1,123.8 C110.6,123.8 104.8,123.7 103.3,123.6 C101.3,123.4 100.1,123.2 99.4,122.8 C102.7,120.4 108.3,110.5 109.4,107 C110.5,103.4 111.8,100.3 112.7,97 L112.7,97 Z M127.2,100.2 L127.5,100.2 L127.2,100.2 L127.2,100.2 Z" id="Shape" fill="#000000"></path>
    </g>
</svg>
