<svg xmlns="http://www.w3.org/2000/svg" xmlns:xlink="http://www.w3.org/1999/xlink" x="0px" y="0px"
	  width="80px" height="80px" viewBox="0 0 24 24" enable-background="new 0 0 24 24" xml:space="preserve">
<path d="M14.956,1.282c0,0,5.335,3.175,6.73,8.226c1.26,4.556,0.25,6.731,0.25,6.731s0.751,0.725,1.495,2.492
	c1.113,2.642,0.25,3.988,0.25,3.988s-0.082-1.857-2.742-2.242c-2.437-0.354-3.324,2.113-7.977,1.995
	C10.283,22.401,4.701,21.74,0,14.993c2.281,1.298,5.262,3.295,8.973,2.991c3.714-0.305,4.488-1.496,4.488-1.496
	S6.351,10.713,2.492,4.523c2.911,2.549,10.14,7.606,9.97,7.478c-2.205-1.693-7.228-8.724-7.228-8.724S16.078,12.55,16.949,12.5
	C17.309,11.73,19.163,7.749,14.956,1.282L14.956,1.282z"/>
</svg>
