<svg id="Layer_1" data-name="Layer 1" xmlns="http://www.w3.org/2000/svg" viewBox="0 0 493.98 493.98">
  <defs>
    <style>
      .cls-1, .cls-7 {
        fill: none;
      }

      .cls-2 {
        fill: #fe5865;
      }

      .cls-10, .cls-11, .cls-12, .cls-14, .cls-2, .cls-3, .cls-4, .cls-5, .cls-6, .cls-7, .cls-8, .cls-9 {
        stroke: #434669;
        stroke-miterlimit: 10;
        stroke-width: 3.5px;
      }

      .cls-3 {
        fill: #e2e2e2;
      }

      .cls-4 {
        fill: #a4aeb2;
      }

      .cls-5 {
        fill: #fff;
      }

      .cls-6 {
        fill: #7f7f7f;
      }

      .cls-8 {
        fill: #63ccc5;
      }

      .cls-9 {
        fill: #d0d4fc;
      }

      .cls-10 {
        fill: #7ccefc;
      }

      .cls-11 {
        fill: #ffce6f;
      }

      .cls-12, .cls-13 {
        fill: #434669;
      }

      .cls-14 {
        fill: #f4efea;
      }
    </style>
  </defs>
  <title>landing-icons</title>
  <rect class="cls-1" width="493.98" height="493.98"/>
  <g>
    <path class="cls-2" d="M500.2,86a16.7,16.7,0,1,0-31.32,8.08h0l14.62,26.43,14.16-25.61,0.45-.83A16.62,16.62,0,0,0,500.2,86Z" transform="translate(-35.04 48.42)"/>
    <path class="cls-3" d="M114.72,315.51H389a0,0,0,0,1,0,0v12.54a10,10,0,0,1-10,10H124.72a10,10,0,0,1-10-10V315.51A0,0,0,0,1,114.72,315.51Z"/>
    <path class="cls-4" d="M124.72,150.91H379a10,10,0,0,1,10,10v154.6a0,0,0,0,1,0,0H114.72a0,0,0,0,1,0,0V160.91A10,10,0,0,1,124.72,150.91Z"/>
    <rect class="cls-5" x="126.5" y="163.22" width="250.77" height="139.46"/>
    <rect class="cls-3" x="197.08" y="369.09" width="109.61" height="7.13"/>
    <circle class="cls-6" cx="251.88" cy="326.49" r="4.79"/>
    <path class="cls-7" d="M240.12,320.67h1.51a10,10,0,0,0,10-10v-21" transform="translate(-35.04 48.42)"/>
    <path class="cls-7" d="M333.73,320.67h-1.51a10,10,0,0,1-10-10v-21" transform="translate(-35.04 48.42)"/>
    <rect class="cls-8" x="136.13" y="173.81" width="20.34" height="10.17"/>
    <rect class="cls-9" x="329.7" y="173.81" width="37.36" height="10.17"/>
    <rect class="cls-7" x="329.7" y="275.49" width="37.36" height="10.17"/>
    <rect class="cls-7" x="329.7" y="194.15" width="37.36" height="30.51"/>
    <rect class="cls-10" x="329.7" y="234.82" width="37.36" height="30.51"/>
    <rect class="cls-2" x="338.27" y="241.82" width="20.22" height="16.51"/>
    <rect class="cls-7" x="136.13" y="194.15" width="10.17" height="10.17"/>
    <rect class="cls-7" x="146.3" y="194.15" width="10.17" height="10.17"/>
    <rect class="cls-7" x="136.13" y="204.31" width="10.17" height="10.17"/>
    <rect class="cls-7" x="146.3" y="204.31" width="10.17" height="10.17"/>
    <rect class="cls-7" x="136.13" y="214.48" width="10.17" height="10.17"/>
    <rect class="cls-7" x="146.3" y="214.48" width="10.17" height="10.17"/>
    <rect class="cls-7" x="136.13" y="224.65" width="10.17" height="10.17"/>
    <rect class="cls-7" x="146.3" y="224.65" width="10.17" height="10.17"/>
    <rect class="cls-7" x="136.13" y="234.82" width="10.17" height="10.17"/>
    <rect class="cls-7" x="146.3" y="234.82" width="10.17" height="10.17"/>
    <rect class="cls-7" x="136.13" y="244.99" width="10.17" height="10.17"/>
    <rect class="cls-7" x="146.3" y="244.99" width="10.17" height="10.17"/>
    <rect class="cls-7" x="136.13" y="255.16" width="10.17" height="10.17"/>
    <rect class="cls-7" x="146.3" y="255.16" width="10.17" height="10.17"/>
    <rect class="cls-7" x="136.13" y="265.33" width="10.17" height="10.17"/>
    <rect class="cls-7" x="146.3" y="265.33" width="10.17" height="10.17"/>
    <polygon class="cls-11" points="275.67 205.56 307.84 205.56 291.75 233 275.67 205.56"/>
    <rect class="cls-8" x="343.53" y="252.55" width="69.07" height="123.67" rx="10" ry="10"/>
    <rect class="cls-5" x="352.71" y="262.02" width="50.72" height="91.3"/>
    <circle class="cls-5" cx="378.07" cy="364.55" r="4.39"/>
    <g>
      <path class="cls-7" d="M266.89,141.84H253.7a33,33,0,0,0-33,33V188" transform="translate(-35.04 48.42)"/>
      <line class="cls-7" x1="177.38" y1="216.69" x2="212.21" y2="181.86"/>
      <rect class="cls-5" x="191.59" y="196.21" width="7.06" height="7.06"/>
      <rect class="cls-12" x="231.85" y="186.73" width="7.06" height="7.06"/>
      <rect class="cls-12" x="217.19" y="188.01" width="7.06" height="7.06" transform="translate(-5.86 460.68) rotate(-90)"/>
      <circle class="cls-13" cx="214.67" cy="179.4" r="4.09"/>
      <circle class="cls-13" cx="174.79" cy="219.28" r="4.09"/>
    </g>
    <rect class="cls-2" x="219.54" y="244.82" width="45.76" height="45.76"/>
    <line class="cls-7" x1="435.23" y1="180.78" x2="461.67" y2="171.97"/>
    <line class="cls-7" x1="461.67" y1="180.78" x2="435.23" y2="171.97"/>
    <circle class="cls-11" cx="448.45" cy="133.91" r="8"/>
    <path class="cls-11" d="M74.71,220.81v9.57l-5.42,12.2-5.42-12.2V193.79a5.42,5.42,0,0,1,10.84,0v21.6" transform="translate(-35.04 48.42)"/>
    <line class="cls-7" x1="39.67" y1="244.92" x2="28.83" y2="244.92"/>
    <line class="cls-7" x1="39.67" y1="278.8" x2="28.83" y2="278.8"/>
    <polyline class="cls-4" points="66.78 247.55 87.95 281.26 81.7 285.06 58.76 247.72"/>
    <line class="cls-7" x1="84.91" y1="283.11" x2="89.56" y2="290.95"/>
    <polyline class="cls-4" points="50.35 247.49 44.49 263.81 28.83 263.81 28.83 269.23 50.51 269.23 58.98 247.72"/>
    <circle class="cls-8" cx="218.3" cy="242" r="14.84"/>
    <line class="cls-7" x1="335.39" y1="201.29" x2="361.38" y2="201.29"/>
    <line class="cls-7" x1="335.39" y1="206.7" x2="361.38" y2="206.7"/>
    <line class="cls-7" x1="335.39" y1="212.1" x2="361.38" y2="212.1"/>
    <line class="cls-7" x1="335.39" y1="217.5" x2="361.38" y2="217.5"/>
    <path class="cls-9" d="M85.56,188.28a8.13,8.13,0,1,1,16.26,0v10.84H85.56V188.28Z" transform="translate(-35.04 48.42)"/>
    <path class="cls-2" d="M74.71,196.5v-2.71a5.42,5.42,0,1,0-10.84,0v2.71H74.71Z" transform="translate(-35.04 48.42)"/>
    <rect class="cls-11" x="352.71" y="262.02" width="50.72" height="11.52"/>
    <rect class="cls-14" x="352.71" y="273.54" width="50.72" height="67.1"/>
    <rect class="cls-9" x="352.71" y="340.64" width="12.68" height="12.68"/>
    <rect class="cls-9" x="365.39" y="340.64" width="12.68" height="12.68"/>
    <rect class="cls-9" x="378.07" y="340.64" width="12.68" height="12.68"/>
    <rect class="cls-9" x="390.75" y="340.64" width="12.68" height="12.68"/>
    <path class="cls-11" d="M254.58,208.35a14.83,14.83,0,0,0,13.33-12H254.58v12Z" transform="translate(-35.04 48.42)"/>
  </g>
</svg>
