<?xml version="1.0" encoding="UTF-8" standalone="no"?>
<svg width="19px" height="24px" viewBox="0 0 19 24" version="1.1" xmlns="http://www.w3.org/2000/svg" xmlns:xlink="http://www.w3.org/1999/xlink">
    <!-- Generator: Sketch 3.6.1 (26313) - http://www.bohemiancoding.com/sketch -->
    <title>Group</title>
    <desc>Created with Sketch.</desc>
    <defs></defs>
    <g id="Page-1" stroke="none" stroke-width="1" fill="none" fill-rule="evenodd">
        <g id="Group" stroke="#444" stroke-linecap="round" stroke-linejoin="round">
            <path d="M14.5,12.5 L15.5,12.5 C17.157,12.5 18.5,13.843 18.5,15.5 C18.5,17.157 17.157,18.5 15.5,18.5 L14.5,18.5" id="Stroke-2392"></path>
            <path d="M14.5,21.5 C14.5,22.604 13.605,23.5 12.5,23.5 L3.5,23.5 C2.395,23.5 1.5,22.604 1.5,21.5 L1.5,10.5 L14.5,10.5 L14.5,21.5 L14.5,21.5 Z" id="Stroke-2393"></path>
            <path d="M14.3813,0.564 C15.4133,2.138 13.8843,3.001 13.5283,3.846 C13.1513,4.74 13.5183,5.598 14.4133,5.975 C17.3133,7.197 18.1763,1.482 14.3813,0.564 L14.3813,0.564 Z" id="Stroke-2394"></path>
            <path d="M11.5,10.5 L14.109,5.813" id="Stroke-2395"></path>
            <path d="M15.1406,6.1562 L13.4996,10.5002" id="Stroke-2396"></path>
            <path d="M5.5,10.5 L2.5,10.5 L1,7.5 L0.5,4.5 L3,6 L5.5,10.5 L5.5,10.5 Z" id="Stroke-2397"></path>
            <path d="M1,7.5 L3,6" id="Stroke-2398"></path>
            <path d="M10.5,0.5 L6.5,0.5 L6.5,10.5 L10.5,10.5 L10.5,0.5 Z" id="Stroke-2399"></path>
            <path d="M10.5,2.5 L8.5,2.5" id="Stroke-2400"></path>
            <path d="M10.5,4.5 L9.5,4.5" id="Stroke-2401"></path>
            <path d="M10.5,6.5 L8.5,6.5" id="Stroke-2402"></path>
            <path d="M10.5,8.5 L9.5,8.5" id="Stroke-2403"></path>
        </g>
        <g id="Text" transform="translate(-192.000000, -191.000000)"></g>
    </g>
</svg>
