<?xml version="1.0" encoding="UTF-8"?>
<svg width="25px" height="25px" viewBox="0 0 25 25" version="1.1" xmlns="http://www.w3.org/2000/svg" xmlns:xlink="http://www.w3.org/1999/xlink">
    <!-- Generator: Sketch 40.2 (33826) - http://www.bohemiancoding.com/sketch -->
    <title>Group</title>
    <desc>Created with Sketch.</desc>
    <defs></defs>
    <g id="Page-1" stroke="none" stroke-width="1" fill="none" fill-rule="evenodd">
        <g id="Group" transform="translate(1.000000, 1.000000)" stroke="#444" stroke-linejoin="round">
            <path d="M5.5312,7.5 C7.4642,7.5 9.0312,5.933 9.0312,4 C9.0312,2.067 7.4642,0.5 5.5312,0.5 C3.5982,0.5 2.0312,2.067 2.0312,4 C2.0312,5.933 3.5982,7.5 5.5312,7.5 L5.5312,7.5 Z" id="Stroke-1814"></path>
            <path d="M11.0312,9.5 L0.0312,9.5 C0.0312,13.569 1.6722,15.942 3.5312,17 L3.5312,23.5 L7.5312,23.5 L7.5312,17 C9.3892,15.942 11.0312,13.569 11.0312,9.5 L11.0312,9.5 Z" id="Stroke-1815"></path>
            <polygon id="Stroke-1816" points="6.0312 9.5 5.0312 9.5 4.5312 15.5 5.5312 16.5 6.5312 15.5"></polygon>
            <polyline id="Stroke-1817" stroke-linecap="round" points="13 15.5 22.5 15.5 22.5 1.5 12 1.5"></polyline>
            <path d="M13.5205,13.5 L19.4795,13.5" id="Stroke-1818" stroke-linecap="round"></path>
            <path d="M15.5,13.5 L15.5,9.5" id="Stroke-1819" stroke-linecap="round"></path>
            <path d="M17.5,13.5 L17.5,7.5" id="Stroke-1820" stroke-linecap="round"></path>
            <path d="M19.5,13.5 L19.5,4.5" id="Stroke-1821" stroke-linecap="round"></path>
        </g>
        <g id="Text" transform="translate(-384.000000, -1917.000000)"></g>
    </g>
</svg>
