<?xml version="1.0" encoding="UTF-8" standalone="no"?>
<svg width="24px" height="25px" viewBox="0 0 24 25" version="1.1" xmlns="http://www.w3.org/2000/svg" xmlns:xlink="http://www.w3.org/1999/xlink">
    <!-- Generator: Sketch 3.6.1 (26313) - http://www.bohemiancoding.com/sketch -->
    <title>Group</title>
    <desc>Created with Sketch.</desc>
    <defs></defs>
    <g id="Page-1" stroke="none" stroke-width="1" fill="none" fill-rule="evenodd">
        <g id="Group" transform="translate(0.000000, 1.000000)" stroke="#444" stroke-linejoin="round">
            <path d="M8.5166,18.5 L8.5166,16.5 L9.5166,16.5 L9.5166,14.5 L4.5166,14.5 L4.5166,16.5 L5.5166,16.5 L5.5166,18.5 C2.4616,18.9 0.7506,20.396 0.5166,23.5 L13.5906,23.5 C13.3566,20.396 11.5706,18.9 8.5166,18.5 L8.5166,18.5 Z" id="Stroke-225"></path>
            <path d="M22.9043,0.8018 L10.7913,12.9148" id="Stroke-226" stroke-linecap="round"></path>
            <path d="M12.3838,11.2969 C11.2038,10.1169 12.4328,6.5209 15.3628,3.5929 C16.8678,2.0849 18.5168,0.9949 19.5168,0.4999 L19.5168,4.1989" id="Stroke-227" stroke-linecap="round"></path>
            <path d="M16.2139,7.5 L21.0169,7.5" id="Stroke-228" stroke-linecap="round"></path>
            <path d="M14.2139,9.5 L19.5169,9.5 C16.7159,12.046 13.3999,12.328 12.3839,11.313" id="Stroke-229" stroke-linecap="round"></path>
            <path d="M22.915,0.7817 C23.827,1.6947 23.617,3.4997 22.471,5.4997 L18.204,5.4997" id="Stroke-230" stroke-linecap="round"></path>
        </g>
        <g id="Text" transform="translate(-144.000000, -239.000000)"></g>
    </g>
</svg>
