<?xml version="1.0" encoding="UTF-8"?>
<svg width="27px" height="27px" viewBox="0 0 27 27" version="1.1" xmlns="http://www.w3.org/2000/svg" xmlns:xlink="http://www.w3.org/1999/xlink">
    <!-- Generator: Sketch 40.2 (33826) - http://www.bohemiancoding.com/sketch -->
    <title>Group</title>
    <desc>Created with Sketch.</desc>
    <defs></defs>
    <g id="Page-1" stroke="none" stroke-width="1" fill="none" fill-rule="evenodd">
        <g id="Group" transform="translate(2.000000, 2.000000)" stroke="#444" stroke-linecap="round" stroke-linejoin="round">
            <path d="M21.5,6.52739766 C21.5,7.07839766 21.053,7.52739766 20.5,7.52739766 L1.5,7.52739766 C0.947,7.52739766 0.5,7.07839766 0.5,6.52739766 L0.5,1.52739766 C0.5,0.974397656 0.947,0.527397656 1.5,0.527397656 L20.5,0.527397656 C21.053,0.527397656 21.5,0.974397656 21.5,1.52739766 L21.5,6.52739766 L21.5,6.52739766 Z" id="Stroke-557"></path>
            <path d="M8,5.52739766 L18,5.52739766" id="Stroke-558"></path>
            <path d="M8,3.52739766 L18,3.52739766" id="Stroke-559"></path>
            <path d="M5,4.02739766 C5,4.57839766 4.553,5.02739766 4,5.02739766 C3.447,5.02739766 3,4.57839766 3,4.02739766 C3,3.47439766 3.447,3.02739766 4,3.02739766 C4.553,3.02739766 5,3.47439766 5,4.02739766 L5,4.02739766 Z" id="Stroke-560"></path>
            <path d="M9,14.5273977 L1.5,14.5273977 C0.947,14.5273977 0.5,14.0783977 0.5,13.5273977 L0.5,8.52739766 C0.5,7.97439766 0.947,7.52739766 1.5,7.52739766 L20.5,7.52739766 C21.053,7.52739766 21.5,7.97439766 21.5,8.52739766 L21.5,11.0273977" id="Stroke-561"></path>
            <path d="M8,12.5273977 L10,12.5273977" id="Stroke-562"></path>
            <path d="M8,10.5273977 L11,10.5273977" id="Stroke-563"></path>
            <path d="M5,11.0273977 C5,11.5783977 4.553,12.0273977 4,12.0273977 C3.447,12.0273977 3,11.5783977 3,11.0273977 C3,10.4743977 3.447,10.0273977 4,10.0273977 C4.553,10.0273977 5,10.4743977 5,11.0273977 L5,11.0273977 Z" id="Stroke-564"></path>
            <path d="M10,21.5273977 L1.5,21.5273977 C0.947,21.5273977 0.5,21.0783977 0.5,20.5273977 L0.5,15.5273977 C0.5,14.9743977 0.947,14.5273977 1.5,14.5273977 L9,14.5273977" id="Stroke-565"></path>
            <path d="M5,18.0273977 C5,18.5783977 4.553,19.0273977 4,19.0273977 C3.447,19.0273977 3,18.5783977 3,18.0273977 C3,17.4743977 3.447,17.0273977 4,17.0273977 C4.553,17.0273977 5,17.4743977 5,18.0273977 L5,18.0273977 Z" id="Stroke-566"></path>
            <polyline id="Stroke-567" points="22.5 14.0273977 22.5 16.5273977 20 16.5273977"></polyline>
            <path d="M13.7559,16.5253977 C14.3739,14.7793977 16.0409,13.5273977 17.9999,13.5273977 C19.9589,13.5273977 21.8399,14.7583977 22.4579,16.5053977" id="Stroke-568"></path>
            <polyline id="Stroke-569" points="13.999 21.9921977 13.999 19.4921977 16.499 19.4921977"></polyline>
            <path d="M22.7432,19.4941977 C22.1252,21.2401977 20.4582,22.4921977 18.4992,22.4921977 C16.5402,22.4921977 14.6592,21.2621977 14.0412,19.5141977" id="Stroke-570"></path>
        </g>
        <g id="Text" transform="translate(-646.000000, -3415.000000)"></g>
    </g>
</svg>
