<?xml version="1.0" encoding="UTF-8"?>
<svg width="26px" height="26px" viewBox="0 0 26 26" version="1.1" xmlns="http://www.w3.org/2000/svg" xmlns:xlink="http://www.w3.org/1999/xlink">
    <!-- Generator: Sketch 40.2 (33826) - http://www.bohemiancoding.com/sketch -->
    <title>Group</title>
    <desc>Created with Sketch.</desc>
    <defs></defs>
    <g id="Page-1" stroke="none" stroke-width="1" fill="none" fill-rule="evenodd" stroke-linejoin="round">
        <g id="Group" transform="translate(1.000000, 1.000000)" stroke="#444">
            <path d="M17.499,10.5 C17.499,12.71 15.708,14.5 13.499,14.5 C11.29,14.5 9.499,12.71 9.499,10.5 C9.499,8.291 11.29,6.5 13.499,6.5 C15.708,6.5 17.499,8.291 17.499,10.5 L17.499,10.5 Z" id="Stroke-537"></path>
            <path d="M3.5,5.5 C3.5,6.329 2.829,7 2,7 C1.171,7 0.5,6.329 0.5,5.5 C0.5,4.672 1.171,4 2,4 C2.829,4 3.5,4.672 3.5,5.5 L3.5,5.5 Z" id="Stroke-538"></path>
            <path d="M23.5,2 C23.5,2.828 22.829,3.5 22,3.5 C21.171,3.5 20.5,2.828 20.5,2 C20.5,1.171 21.171,0.5 22,0.5 C22.829,0.5 23.5,1.171 23.5,2 L23.5,2 Z" id="Stroke-539"></path>
            <path d="M3.5,22 C3.5,22.829 2.829,23.5 2,23.5 C1.171,23.5 0.5,22.829 0.5,22 C0.5,21.172 1.171,20.5 2,20.5 C2.829,20.5 3.5,21.172 3.5,22 L3.5,22 Z" id="Stroke-540"></path>
            <path d="M14.999,22 C14.999,22.829 14.328,23.5 13.499,23.5 C12.67,23.5 11.999,22.829 11.999,22 C11.999,21.172 12.67,20.5 13.499,20.5 C14.328,20.5 14.999,21.172 14.999,22 L14.999,22 Z" id="Stroke-541"></path>
            <path d="M3.0596,20.9395 L10.6796,13.3375" id="Stroke-542"></path>
            <path d="M16.333,7.6768 L20.938,3.0618" id="Stroke-543"></path>
            <path d="M3.3496,6.1504 L9.8226,8.9244" id="Stroke-544"></path>
            <path d="M20.5615,14.0293 L16.9445,12.5343" id="Stroke-545"></path>
            <path d="M13.499,20.5 L13.499,14.5" id="Stroke-546"></path>
            <path d="M23.5,14.5 C23.5,15.328 22.829,16 22,16 C21.172,16 20.5,15.328 20.5,14.5 C20.5,13.672 21.172,13 22,13 C22.829,13 23.5,13.672 23.5,14.5 L23.5,14.5 Z" id="Stroke-547"></path>
        </g>
    </g>
</svg>
