<?xml version="1.0" encoding="UTF-8"?>
<svg width="26px" height="26px" viewBox="0 0 26 26" version="1.1" xmlns="http://www.w3.org/2000/svg" xmlns:xlink="http://www.w3.org/1999/xlink">
    <!-- Generator: Sketch 40.2 (33826) - http://www.bohemiancoding.com/sketch -->
    <title>Group 2</title>
    <desc>Created with Sketch.</desc>
    <defs></defs>
    <g id="Page-1" stroke="none" stroke-width="1" fill="none" fill-rule="evenodd">
        <g id="Text" transform="translate(-518.000000, -1802.000000)"></g>
        <g id="Group-2" stroke-linecap="round" stroke="#444" stroke-linejoin="round">
            <g id="Group">
                <path d="M23.173913,13.0011304 C23.173913,18.6205217 18.6193913,23.173913 13,23.173913 C7.3806087,23.173913 2.82608696,18.6205217 2.82608696,13.0011304 C2.82608696,7.38173913 7.3806087,2.82608696 13,2.82608696 C18.6193913,2.82608696 23.173913,7.38173913 23.173913,13.0011304 L23.173913,13.0011304 Z" id="Stroke-1807"></path>
                <path d="M13,0.566347826 L13,5.92234783" id="Stroke-1808"></path>
                <path d="M0.565217391,13.0011304 L5.92234783,13.0011304" id="Stroke-1809"></path>
                <path d="M13,25.435913 L13,20.0776522" id="Stroke-1810"></path>
                <path d="M25.4347826,13.0011304 L20.0776522,13.0011304" id="Stroke-1811"></path>
            </g>
            <path d="M11.1428571,10.3881143 C11.1428571,8.9024 11.9741143,8.17142857 13,8.17142857 C14.0258857,8.17142857 14.8571429,8.9024 14.8571429,10.3881143 L11.1428571,10.3881143 L11.1428571,10.3881143 Z" id="Stroke-225"></path>
            <path d="M11.1428571,11.8857143 L14.8571429,11.8857143 L14.8571429,15.2285714 C14.8571429,16.2544571 14.0258857,17.0857143 13,17.0857143 C11.9741143,17.0857143 11.1428571,16.2544571 11.1428571,15.2285714 L11.1428571,11.8857143 L11.1428571,11.8857143 Z" id="Stroke-226"></path>
            <path d="M14.8571429,12.6285714 L17.0857143,12.6285714" id="Stroke-227"></path>
            <path d="M14.8571429,14.1142857 L17.0857143,14.1142857" id="Stroke-228"></path>
            <path d="M14.8571429,15.6 L17.1236,15.6" id="Stroke-229"></path>
            <path d="M8.91428571,12.6285714 L11.1198286,12.6285714" id="Stroke-230"></path>
            <path d="M8.91428571,14.1142857 L11.1198286,14.1142857" id="Stroke-231"></path>
            <path d="M8.91428571,15.6 L11.1577143,15.6" id="Stroke-232"></path>
        </g>
    </g>
</svg>
