<?xml version="1.0" encoding="UTF-8"?>
<svg width="26px" height="26px" viewBox="0 0 26 26" version="1.1" xmlns="http://www.w3.org/2000/svg" xmlns:xlink="http://www.w3.org/1999/xlink">
    <!-- Generator: Sketch 40.2 (33826) - http://www.bohemiancoding.com/sketch -->
    <title>Group</title>
    <desc>Created with Sketch.</desc>
    <defs></defs>
    <g id="Page-1" stroke="none" stroke-width="1" fill="none" fill-rule="evenodd">
        <g id="Group" transform="translate(1.000000, 1.000000)">
            <path d="M16.625,21.5049 L2,21.5049 C1.176,21.5019 0.5,20.8239 0.5,19.9999 L0.5,1.9999 C0.5,1.1749 1.176,0.4999 2,0.4999 L15,0.4999 C15.825,0.4999 16.5,1.1749 16.5,1.9999 L16.5,15.5209" id="Stroke-98" stroke="#444" stroke-linejoin="round"></path>
            <polyline id="Stroke-100" stroke="#444" stroke-linecap="round" stroke-linejoin="round" points="14.9375 17.5 2.4995 17.5 2.4995 2.5 14.5005 2.5 14.5005 13.937"></polyline>
            <path d="M23,23.5 L20,19.5 L20,14.941 C20,13.247 18.419,11.637 16.5,10" id="Stroke-102" stroke="#444" stroke-linecap="round" stroke-linejoin="round"></path>
            <path d="M17.5,16.5 L15.25,14.25 C14.836,13.836 14.164,13.836 13.75,14.25 C13.336,14.664 13.5,15.5 13.75,15.75 L16,19 L16,20 C16,21 18,23.5 18,23.5" id="Stroke-104" stroke="#444" stroke-linecap="round" stroke-linejoin="round"></path>
            <path d="M6.0312,19.5 L9.9692,19.5" id="Stroke-106" stroke="#444" stroke-linejoin="round"></path>
            <path d="M4.5,19 C4.224,19 4,19.225 4,19.5 C4,19.775 4.224,20 4.5,20 C4.776,20 5,19.775 5,19.5 C5,19.225 4.776,19 4.5,19" id="Fill-108" fill="#444"></path>
            <path d="M11.5,19 C11.224,19 11,19.225 11,19.5 C11,19.775 11.224,20 11.5,20 C11.776,20 12,19.775 12,19.5 C12,19.225 11.776,19 11.5,19" id="Fill-110" fill="#444"></path>
            <path d="M5,13.5 L12,13.5" id="Stroke-112" stroke="#444" stroke-linejoin="round"></path>
            <path d="M5,11.5 L12,11.5" id="Stroke-114" stroke="#444" stroke-linejoin="round"></path>
            <path d="M5,9.5 L12,9.5" id="Stroke-116" stroke="#444" stroke-linejoin="round"></path>
            <path d="M5,7.5 L12,7.5" id="Stroke-118" stroke="#444" stroke-linejoin="round"></path>
            <path d="M5,5.5 L9,5.5" id="Stroke-120" stroke="#444" stroke-linejoin="round"></path>
        </g>
        <g id="Text" transform="translate(-143.000000, -4402.000000)"></g>
    </g>
</svg>
