<?xml version="1.0" encoding="UTF-8" standalone="no"?>
<svg width="24px" height="25px" viewBox="0 0 24 25" version="1.1" xmlns="http://www.w3.org/2000/svg" xmlns:xlink="http://www.w3.org/1999/xlink">
    <!-- Generator: Sketch 3.7.2 (28276) - http://www.bohemiancoding.com/sketch -->
    <title>Group</title>
    <desc>Created with Sketch.</desc>
    <defs></defs>
    <g id="Page-1" stroke="none" stroke-width="1" fill="none" fill-rule="evenodd">
        <g id="Group" stroke="#444" stroke-linecap="round" stroke-linejoin="round">
            <path d="M19.5,4.52739766 C19.5,6.73639766 15.246,8.52739766 10,8.52739766 C4.754,8.52739766 0.5,6.73639766 0.5,4.52739766 C0.5,2.31839766 4.754,0.527397656 10,0.527397656 C15.246,0.527397656 19.5,2.31839766 19.5,4.52739766 L19.5,4.52739766 Z" id="Stroke-220"></path>
            <path d="M10,12.5273977 C4.754,12.5273977 0.5,10.7363977 0.5,8.52739766" id="Stroke-221"></path>
            <path d="M8.5,16.9765977 C3.967,16.6735977 0.5,15.0215977 0.5,13.0275977" id="Stroke-222"></path>
            <path d="M9,21.5058977 C4.224,21.2948977 0.5,19.5938977 0.5,17.5268977 L0.5,4.52689766" id="Stroke-223"></path>
            <path d="M19.5,4.52739766 L19.5,9.02739766" id="Stroke-224"></path>
            <path d="M15.5,14.5156977 C15.5,12.5156977 16.619,11.5316977 18,11.5316977 C19.381,11.5316977 20.5,12.5156977 20.5,14.5156977 L15.5,14.5156977 L15.5,14.5156977 Z" id="Stroke-225"></path>
            <path d="M15.5,16.5156977 L20.5,16.5156977 L20.5,21.0156977 C20.5,22.3966977 19.381,23.5156977 18,23.5156977 C16.619,23.5156977 15.5,22.3966977 15.5,21.0156977 L15.5,16.5156977 L15.5,16.5156977 Z" id="Stroke-226"></path>
            <path d="M20.5,17.5156977 L23.5,17.5156977" id="Stroke-227"></path>
            <path d="M20.5,19.5156977 L23.5,19.5156977" id="Stroke-228"></path>
            <path d="M20.4492,21.5156977 L23.5002,21.5156977" id="Stroke-229"></path>
            <path d="M12.5312,17.5156977 L15.5002,17.5156977" id="Stroke-230"></path>
            <path d="M12.5312,19.5156977 L15.5002,19.5156977" id="Stroke-231"></path>
            <path d="M12.5312,21.5156977 L15.5512,21.5156977" id="Stroke-232"></path>
        </g>
        <g id="Text" transform="translate(-792.000000, -3273.000000)"></g>
    </g>
</svg>
