<?xml version="1.0" encoding="UTF-8" standalone="no"?>
<svg width="24px" height="17px" viewBox="0 0 24 17" version="1.1" xmlns="http://www.w3.org/2000/svg" xmlns:xlink="http://www.w3.org/1999/xlink">
    <!-- Generator: Sketch 3.6.1 (26313) - http://www.bohemiancoding.com/sketch -->
    <title>Group</title>
    <desc>Created with Sketch.</desc>
    <defs></defs>
    <g id="Page-1" stroke="none" stroke-width="1" fill="none" fill-rule="evenodd">
        <g id="Group" stroke="#000000" stroke-linejoin="round">
            <path d="M7.5,14.5 C7.5,15.604 6.605,16.5 5.5,16.5 C4.395,16.5 3.5,15.604 3.5,14.5 C3.5,13.396 4.395,12.5 5.5,12.5 C6.605,12.5 7.5,13.396 7.5,14.5 L7.5,14.5 Z" id="Stroke-4302" stroke-linecap="round"></path>
            <path d="M18.5,14.5 C18.5,15.604 17.605,16.5 16.5,16.5 C15.395,16.5 14.5,15.604 14.5,14.5 C14.5,13.396 15.395,12.5 16.5,12.5 C17.605,12.5 18.5,13.396 18.5,14.5 L18.5,14.5 Z" id="Stroke-4303" stroke-linecap="round"></path>
            <path d="M7.5,14.5 L14.5,14.5" id="Stroke-4304" stroke-linecap="round"></path>
            <path d="M0.5,14.5 L3.5,14.5" id="Stroke-4305" stroke-linecap="round"></path>
            <path d="M18.5,14.5 L22.5,14.5 C22.766,14.5 23.02,14.395 23.208,14.207 C23.395,14.02 23.5,13.765 23.5,13.5 L23.5,1.5 C23.5,0.947 23.052,0.5 22.5,0.5 L7.5,0.5 C6.948,0.5 6.5,0.947 6.5,1.5 L6.5,8.5 L2.5,8.5 C1.948,8.5 1.5,8.947 1.5,9.5 L1.5,14.5" id="Stroke-4306" stroke-linecap="round"></path>
            <path d="M8.5,6.5 L8.5,4.5 L9.5,4.5" id="Stroke-4307" stroke-linecap="round"></path>
            <path d="M11.5,6.5 L11.5,4.5 L12.5,4.5" id="Stroke-4308" stroke-linecap="round"></path>
            <path d="M14.5,6.5 L14.5,4.5 L15.5,4.5" id="Stroke-4309" stroke-linecap="round"></path>
            <path d="M17.5,6.5 L17.5,4.5 L18.5,4.5" id="Stroke-4310" stroke-linecap="round"></path>
            <path d="M20.5,6.5 L20.5,4.5 L21.5,4.5" id="Stroke-4311" stroke-linecap="round"></path>
            <path d="M8,2.5 L10,2.5" id="Stroke-4312"></path>
            <path d="M19,2.5 L21,2.5" id="Stroke-4313"></path>
            <path d="M1.5,10.5 L23.5,10.5" id="Stroke-4314" stroke-linecap="round"></path>
        </g>
        <g id="Text" transform="translate(-96.000000, -3316.000000)"></g>
    </g>
</svg>