<?xml version="1.0" encoding="UTF-8" standalone="no"?>
<svg width="24px" height="12px" viewBox="0 0 24 12" version="1.1" xmlns="http://www.w3.org/2000/svg" xmlns:xlink="http://www.w3.org/1999/xlink">
    <!-- Generator: Sketch 3.6.1 (26313) - http://www.bohemiancoding.com/sketch -->
    <title>Group</title>
    <desc>Created with Sketch.</desc>
    <defs></defs>
    <g id="Page-1" stroke="none" stroke-width="1" fill="none" fill-rule="evenodd">
        <g id="Group" stroke="#FFFFFF" stroke-linecap="round" stroke-linejoin="round">
            <path d="M6.5,9.5 C6.5,10.604 5.604,11.5 4.5,11.5 C3.396,11.5 2.5,10.604 2.5,9.5 C2.5,8.396 3.396,7.5 4.5,7.5 C5.604,7.5 6.5,8.396 6.5,9.5 L6.5,9.5 Z" id="Stroke-1555"></path>
            <path d="M18.5,9.5 L23.5,9.5" id="Stroke-1556"></path>
            <path d="M18.5,9.5 C18.5,10.604 17.604,11.5 16.5,11.5 C15.396,11.5 14.5,10.604 14.5,9.5 C14.5,8.396 15.396,7.5 16.5,7.5 C17.604,7.5 18.5,8.396 18.5,9.5 L18.5,9.5 Z" id="Stroke-1557"></path>
            <path d="M6.5,9.5 L14.5,9.5" id="Stroke-1558"></path>
            <path d="M22.5,9.5 L22.5,4.5 L20.5,4.5 L13.5,0.5 L8,0.5 L6,4.5 L2,4.5 C1.171,4.5 0.5,5.171 0.5,6 L0.5,9.5 L2.5,9.5" id="Stroke-1559"></path>
            <path d="M8.5,4.5 L9.5,2.5 L10.5,2.5" id="Stroke-1560"></path>
            <path d="M21.5,4.5 L21.5,2.5" id="Stroke-1561"></path>
            <path d="M20.5317,2.75 L23.4367,2" id="Stroke-1562"></path>
        </g>
        <g id="Text" transform="translate(-432.000000, -3321.000000)"></g>
    </g>
</svg>
