<?xml version="1.0" encoding="UTF-8" standalone="no"?>
<svg width="28.1px" height="31.7px" viewBox="0 0 281 317" version="1.1" xmlns="http://www.w3.org/2000/svg" xmlns:xlink="http://www.w3.org/1999/xlink">
    <!-- Generator: Sketch 3.8.1 (29687) - http://www.bohemiancoding.com/sketch -->
    <title>Group</title>
    <desc>Created with Sketch.</desc>
    <defs></defs>
    <g id="Welcome" stroke="none" stroke-width="1" fill="none" fill-rule="evenodd">
        <g id="Tablet-Portrait" transform="translate(-210.000000, -118.000000)" fill="#FED00F">
            <g id="Group" transform="translate(210.000000, 118.000000)">
                <path d="M194.586098,32.3639413 L194.575067,32.3639413 L194.575067,32.3632044 C194.575067,28.2966053 191.28479,25 187.225262,25 C183.164999,25 179.875458,28.2966053 179.875458,32.3632044 L173,283.989093 L173.011767,283.989093 C173.012502,289.956729 177.837604,294.791112 183.793049,294.791112 C189.749229,294.791112 194.574331,289.956729 194.575067,283.989093 L194.586098,283.989093 L194.586098,32.3639413" id="Clip-2"></path>
                <path d="M3.90890812e-15,82.8244265 C0.496233073,77.3165062 5.11656979,73 10.7437758,73 C16.7021624,73 21.5324122,77.8395404 21.5324122,83.8086506 L21.5324122,233.565456 C21.5324122,239.53604 16.7021624,244.374844 10.7437758,244.374844 C5.11656979,244.374844 0.496233073,240.058995 0,234.549906 L3.88849607e-15,82.8244265 L3.90890812e-15,82.8244265 Z" id="Clip-5"></path>
                <path d="M64.5780084,58.8079138 C64.5780084,52.8388035 59.7477586,48 53.7893719,48 C47.8309852,48 43.0014708,52.8388035 43.0014708,58.8079138 L43.0014708,58.8086506 L43,58.8086506 L43,134.497205 L64.5765375,134.497205 L64.5765375,58.8373873 C64.5765375,58.8270716 64.5780084,58.8174927 64.5780084,58.8079138" id="Clip-8"></path>
                <path d="M64.5765375,258.38192 L64.5765375,156 L43,156 L43,258.39592 L43.0007354,258.39592 L43.0007354,258.396657 C43.0007354,264.365767 47.8302498,269.206045 53.7893719,269.206045 C59.7470232,269.206045 64.5780084,264.365767 64.577273,258.396657 C64.577273,258.391499 64.5765375,258.387078 64.5765375,258.38192" id="Clip-11"></path>
                <path d="M96.7879011,23 C90.8302498,23 86,27.8388035 86,33.8086506 L86,283.428871 C86.0007354,289.399454 90.8302498,294.237521 96.7879011,294.237521 C102.747023,294.237521 107.575802,289.399454 107.576538,283.428871 L107.576538,33.8086506 C107.576538,27.8388035 102.747023,23 96.7879011,23" id="Clip-14"></path>
                <path d="M216,58.8079138 C216,52.8388035 220.829514,48 226.788636,48 C232.746288,48 237.576538,52.8388035 237.576538,58.8079138 L237.576538,58.8086506 L237.578008,58.8086506 L237.578008,134.497205 L216.001471,134.497205 L216.001471,58.8373873 C216.001471,58.8270716 216,58.8174927 216,58.8079138" id="Clip-17"></path>
                <path d="M269.942447,73 C263.983325,73 259.15381,77.8395404 259.15381,83.8086506 L259.15381,156.146811 L216.000735,156.146811 L216.000735,258.528731 C216.000735,258.533889 216,258.53831 216,258.543468 C215.999265,264.512578 220.829514,269.352855 226.787901,269.352855 C232.746288,269.352855 237.576538,264.512578 237.576538,258.543468 L237.576538,258.542731 L237.577273,258.542731 L237.577273,177.764849 L259.15381,177.764849 L259.15381,233.565456 C259.15381,239.53604 263.983325,244.374844 269.942447,244.374844 C275.900098,244.374844 280.730348,239.53604 280.730348,233.565456 L280.730348,83.8086506 C280.730348,77.8395404 275.900098,73 269.942447,73" id="Clip-20"></path>
                <path d="M159.433783,301.598858 L144.386319,6.54236888 L144.383378,6.54236888 C144.040671,2.87218762 140.961461,0 137.208604,0 C133.227766,0 130,3.23397421 130,7.22320556 L130,301.918645 C130,310.061422 136.588643,316.663475 144.716524,316.663475 C152.84514,316.663475 159.433783,310.061422 159.433783,301.918645 C159.433783,301.811067 159.41981,301.706436 159.417604,301.598858 L159.433783,301.598858" id="Clip-23"></path>
            </g>
        </g>
    </g>
</svg>
