<?xml version="1.0" encoding="UTF-8" standalone="no"?>
<svg width="24px" height="24px" viewBox="0 0 24 24" version="1.1" xmlns="http://www.w3.org/2000/svg" xmlns:xlink="http://www.w3.org/1999/xlink">
    <!-- Generator: Sketch 3.6.1 (26313) - http://www.bohemiancoding.com/sketch -->
    <title>Group</title>
    <desc>Created with Sketch.</desc>
    <defs></defs>
    <g id="Page-1" stroke="none" stroke-width="1" fill="none" fill-rule="evenodd">
        <g id="Group" stroke="#000000" stroke-linecap="round" stroke-linejoin="round">
            <path d="M15.5,4.5 C15.5,6.71 13.709,8.5 11.5,8.5 C9.291,8.5 7.5,6.71 7.5,4.5 C7.5,2.291 9.291,0.5 11.5,0.5 C13.709,0.5 15.5,2.291 15.5,4.5 L15.5,4.5 Z" id="Stroke-244"></path>
            <path d="M11.5,8.5 L11.5,20.5" id="Stroke-246"></path>
            <path d="M11.5,2.5 C12.604,2.5 13.5,3.396 13.5,4.5" id="Stroke-248"></path>
            <path d="M14.5,19.5474 C19.649,19.7464 23.5,20.5454 23.5,21.5004 C23.5,22.6044 18.351,23.5004 12,23.5004 C5.649,23.5004 0.5,22.6044 0.5,21.5004 C0.5,20.6104 3.85,19.8544 8.478,19.5954" id="Stroke-250"></path>
        </g>
        <g id="Text" transform="translate(-288.000000, -720.000000)"></g>
    </g>
</svg>