<?xml version="1.0" encoding="UTF-8" standalone="no"?>
<svg width="24px" height="16px" viewBox="0 0 24 16" version="1.1" xmlns="http://www.w3.org/2000/svg" xmlns:xlink="http://www.w3.org/1999/xlink">
    <!-- Generator: Sketch 3.6.1 (26313) - http://www.bohemiancoding.com/sketch -->
    <title>Group</title>
    <desc>Created with Sketch.</desc>
    <defs></defs>
    <g id="Page-1" stroke="none" stroke-width="1" fill="none" fill-rule="evenodd">
        <g id="Group" stroke="#5A5A5A" stroke-linecap="round" stroke-linejoin="round">
            <path d="M20.252,13.5 C20.252,14.606 19.357,15.5 18.252,15.5 C17.147,15.5 16.252,14.606 16.252,13.5 C16.252,12.396 17.147,11.5 18.252,11.5 C19.357,11.5 20.252,12.396 20.252,13.5 L20.252,13.5 Z" id="Stroke-4598"></path>
            <path d="M16.252,13.5 L7.5,13.5 L7.5,4.5 C7.5,2.291 9.291,0.5 11.5,0.5 L23.5,0.5 L23.5,13.5 L20.252,13.5" id="Stroke-4599"></path>
            <path d="M8.8125,13.5 L0.5625,13.5" id="Stroke-4600"></path>
            <path d="M12.5,7.5 L20.5,7.5 L20.5,3.5 L12.5,3.5 L12.5,7.5 Z" id="Stroke-4601"></path>
            <path d="M16.5,3.5 L16.5,7.5" id="Stroke-4602"></path>
        </g>
        <g id="Text" transform="translate(-288.000000, -3365.000000)"></g>
    </g>
</svg>
