<svg xmlns="http://www.w3.org/2000/svg" width="80px" height="80px" viewBox="0 0 379 378" version="1.1">
  <g stroke="none" stroke-width="1" fill="none" fill-rule="evenodd">
    <g transform="translate(1.000000, 0.000000)">
      <path d="M376.6194 188.7104C376.6194 292.6154 292.3944 376.8354 188.4894 376.8354 84.5954 376.8354 0.3634 292.6154 0.3634 188.7104 0.3634 84.8174 84.5954 0.5844 188.4894 0.5844 292.3944 0.5844 376.6194 84.8174 376.6194 188.7104" fill="#000000"/>
      <path d="M376.6194 188.7104C376.6194 292.6154 292.3944 376.8354 188.4894 376.8354 84.5954 376.8354 0.3634 292.6154 0.3634 188.7104 0.3634 84.8174 84.5954 0.5844 188.4894 0.5844 292.3944 0.5844 376.6194 84.8174 376.6194 188.7104L376.6194 188.7104Z" stroke="#FFFFFF"/>
      <path d="M191.6555 115.5081L240.3405 235.6621 166.8075 177.7391 191.6555 115.5081ZM278.1435 263.3421L203.2585 83.1261C201.1205 77.9271 196.8435 75.1771 191.6555 75.1771 186.4605 75.1771 181.8725 77.9271 179.7375 83.1261L97.5465 280.8031 125.6615 280.8031 158.1995 199.3001 255.2925 277.7411C259.1985 280.9001 262.0155 282.3261 265.6805 282.3261 273.0135 282.3261 279.4245 276.8261 279.4245 268.8881 279.4245 267.5991 278.9685 265.5461 278.1435 263.3421L278.1435 263.3421Z" fill="#FFFFFF"/>
    </g>
  </g>
</svg>
